/* XPM */
static char *result[] = {
/* columns rows colors chars-per-pixel */
"64 64 111 2 ",
"   c #010101",
".  c #0C0C0C",
"X  c #141414",
"o  c #1B1B1B",
"O  c #242424",
"+  c #2B2B2B",
"@  c #333333",
"#  c #3B3B3B",
"$  c #434343",
"%  c #4B4B4B",
"&  c #545353",
"*  c #5B5756",
"=  c #5C5C5C",
"-  c #675854",
";  c #6A5955",
":  c #745F5A",
">  c #6A615F",
",  c #74635E",
"<  c #546469",
"1  c #5F7074",
"2  c #54747B",
"3  c #636363",
"4  c #6F6765",
"5  c #676C6D",
"6  c #6C6C6C",
"7  c #726765",
"8  c #7D6C67",
"9  c #766D6A",
"0  c #7A6D6A",
"q  c #63797F",
"w  c #737373",
"e  c #7B7371",
"r  c #7B7B7B",
"t  c #834040",
"y  c #816C67",
"u  c #966C6C",
"i  c #84726D",
"p  c #837672",
"a  c #847C7A",
"s  c #997E7E",
"d  c #C44444",
"f  c #C74949",
"g  c #DC5959",
"h  c #85807E",
"j  c #006C8B",
"k  c #007392",
"l  c #007EA4",
"z  c #1A819A",
"x  c #37879B",
"c  c #0081A9",
"v  c #008DB6",
"b  c #0092BE",
"n  c #159ABC",
"m  c #2E95AE",
"M  c #24A0BF",
"N  c #458696",
"B  c #488391",
"V  c #659EAD",
"C  c #49A0B5",
"Z  c #5CA1B3",
"A  c #0E9EC2",
"S  c #009ECC",
"D  c #119EC1",
"F  c #0DA4CA",
"G  c #11A8CE",
"H  c #00AADB",
"J  c #00B1E4",
"K  c #02BDEB",
"L  c #0FBEEA",
"P  c #44BAD9",
"I  c #00C1F8",
"U  c #01CBFE",
"Y  c #52C4E0",
"T  c #5CD9F8",
"R  c #838383",
"E  c #8B8B8B",
"W  c #949494",
"Q  c #919E9E",
"!  c #9A9A9A",
"~  c #95A2A2",
"^  c #A4A4A4",
"/  c #ABABAB",
"(  c #B5A5A1",
")  c #B2B2B2",
"_  c #BBBBBB",
"`  c #E49797",
"'  c #CBBDB9",
"]  c #FFA9A9",
"[  c #86B8C5",
"{  c #89C7D7",
"}  c #91D9EB",
"|  c #93F4FF",
" . c #C4C4C4",
".. c #C6CACA",
"X. c #CBCBCB",
"o. c #DACCC8",
"O. c #D3D3D3",
"+. c #D0DCDC",
"@. c #DCDCDC",
"#. c #FFCECE",
"$. c #E0D5D2",
"%. c #E9D8D4",
"&. c #C9DEE3",
"*. c #E6E6E6",
"=. c #E2E8E8",
"-. c #EAEAEA",
";. c #F1EFEF",
":. c #EFF2F2",
">. c #F4F4F4",
",. c #F3FAFA",
"<. c #FFFFFF",
/* pixels */
"<.<.<.<.<.<.<.<.<.<.<.<.<.<.<.<.<.<.<.<.<.<.<.<.<.<.<.<.<.<.<.<.<.<.<.<.<.<.<.<.<.<.<.<.<.<.<.<.<.<.<.<.<.<.<.<.<.<.<.<.<.<.<.<.",
"<.<.<.<.<.<.<.<.<.<.<.<.<.<.<.<.<.<.<.<.<.<.<.<.<.<.<.<.<.<.<.<.<.<.<.<.<.<.<.<.<.<.<.<.<.<.<.<.<.<.<.<.<.<.<.<.<.<.<.<.<.<.<.<.",
"<.<.<.<.<.<.<.<.<.<.<.<.<.<.<.<.<.<.<.<.<.<.<.<.<.<.<.<.<.<.<.<.<.<.<.<.<.<.<.<.<.<.<.<.<.<.<.<.<.<.<.<.<.<.<.<.<.<.<.<.<.<.<.<.",
"<.<.<.<.<.<.<.<.<.<.<.<.<.<.<.<.<.6 . + w <.<.<.<.<.<.<.<.<.<.<.<.<.<.<.<.<.<.<.<.<.<.<.<.<.<.<.<.<.<.<.<.<.<.<.<.<.<.<.<.<.<.<.",
"<.<.<.<.<.<.<.<.<.<.<.<.<.<.<.<.-.  % $ O   w <.<.<.<.<.<.<.<.<.<.<.<.<.<.<.<.<.<.<.<.<.<.<.<.<.<.<.<.<.<.<.<.<.<.<.<.<.<.<.<.<.",
"<.<.<.<.<.<.<.<.<.<.<.<.<.<.<.<.6 o @ @ # & . O <.<.<.<.<.<.<.<.<.<.<.<.<.<.<.<.-.@.<.<.<.<.<.<.<.<.<.<.<.<.<.<.<.<.<.<.<.<.<.<.",
"<.<.<.<.<.<.<.<.<.<.<.<.<.<.<.<.X + @ @ + o - # # <.<.<.<.<.<.<.<.<.<.<.<.<.=     .   <.<.<.<.<.<.<.<.<.<.<.<.<.<.<.<.<.<.<.<.<.",
"<.<.<.<.<.<.<.<.<.<.<.<.<.<.<.<.  + @ + *.@.^ ^ X  .<.<.<.<.<.<.<.<.<.<.^   3 & & * . *.<.<.<.<.<.<.<.<.<.<.<.<.<.<.<.<.<.<.<.<.",
"<.<.<.<.<.<.<.<.<.<.<.<.<.<.<.*.  @ + w @.X.X.O.^ @ <.<.<.<.<.<.<.<.<.w . ) * # @ +   O.<.<.<.<.<.<.<.<.<.<.<.<.<.<.<.<.<.<.<.<.",
"<.<.<.<.<.<.<.<.<.<.<.<.<.<.<. .  + O ^ >.-.O...@.& <.<.<.<.<.<.<.<.E o ) R = @ $ ^ < ) <.<.<.<.<.<.<.<.<.<.<.<.<.<.<.<.<.<.<.<.",
"<.<.<.<.<.<.<.<.<.<.<.<.<.<.<./   + o O.*.*.-.@.X._ ..<.<.<.<.<.<.*.  / E R 6 E ,.;.e ^ <.<.<.<.<.<.<.<.<.<.<.<.<.<.<.<.<.<.<.<.",
"<.<.<.<.<.<.<.<.<.<.<.<.<.<.<.! . % # *.*.*.*.-.O.X._ / W E ^  .<.X ^ W R w  .>.*.-.w ^ <.<.<.<.<.<.<.<.<.<.<.<.<.<.<.<.<.<.<.<.",
"<.<.<.<.<.<.<.<.<.<.<.<.<.<.<.W + * r *.*.*.*.*.*.X.E . . . % .     & R R ) >.*.*.-.9 / <.<.<.<.<.<.<.<.<.<.<.<.<.<.<.<.<.<.<.<.",
"<.<.<.<.<.<.<.<.<.<.<.<.<.<.<.! @ w r *.-.*.*.*.*.@. .w + + ^ 6 + w @   & <.*.*.*.-.3 _ <.<.<.<.<.<.<.<.<.<.<.<.<.<.<.<.<.<.<.<.",
"<.<.<.<.<.<.<.<.<.<.<.<.<.<.<./ + 6 r @.*.*.*.*.*.*.^ R + + r 4 O R * @ . + <.-.*.-.$ O.<.<.<.<.<.<.<.<.<.<.<.<.<.<.<.<.<.<.<.<.",
"<.<.<.<.<.<.<.<.<.<.<.<.<.<.<._ o 6 R O.-.*.*.*.*.*.r r $ + w r O r $ + E $ X <.-.-.+ <.<.<.<.<.<.<.<.<.<.<.<.<.<.<.<.<.<.<.<.<.",
"<.<.<.<.<.<.<.<.<.<.<.<.<.<.<.O.. 6 r  .-.*.*.*.*.-.$ = 3 + 6 E o E $ O ! # X # <.-.X <.<.<.<.<.<.<.<.<.<.<.<.<.<.<.<.<.<.<.<.<.",
"<.<.<.<.<.<.<.<.<.<.<.<.<.<.<.>.  6 w ) -.*.*.*.-.X.# # E O < W + W # $ B O 6 O ^ -.o <.<.<.<.<.<.<.<.<.<.<.<.<.<.<.<.<.<.<.<.<.",
"<.<.<.<.<.<.<.<.<.<.<.<.<.<.<.<.  6 6 W >.*.*.*.>.R R + R # & E % W @ 4 : + ! /   _ < <.<.<.<.<.<.<.<.<.<.<.<.<.<.<.<.<.<.<.<.<.",
"<.<.<.<.<.<.<.<.<.<.<.<.<.<.<.<.o & 3 r *.-.-.>.) r R 6 * 3 % E > W + E @ 8 R ^ =   X.<.<.<.<.<.<.<.<.<.<.<.<.<.<.<.<.<.<.<.<.<.",
"<.<.<.<.<.<.<.<.<.<.<.<.<.<.<.<.R O 6 w W @.*.^ r R R R = R # E r R # E # E R E /   <.<.<.<.<.<.<.<.<.<.<.<.<.<.<.<.<.<.<.<.<.<.",
"<.<.<.<.<.<.<.<.<.<.<.<.<.<.<.<.%   w 6 R w w r R R R R R R % E R R = 3 r R R r ^ +  .<.<.<.<.<.<.<.<.<.<.<.<.<.<.<.<.<.<.<.<.<.",
"<.<.<.<.<.<.<.<.<.<.<.<.<.<.<.<.  # X % 3 R R R R R R R R R 3 R R r r w R R R r W R & <.<.<.<.<.<.<.<.<.<.<.<.<.<.<.<.<.<.<.<.<.",
"<.<.<.<.<.<.<.<.<.<.<.<.<.<.<.^ # W O @ R R R R R R R R R R r R R R R R R R R R R ^ . <.<.<.<.<.<.<.<.<.<.<.<.<.<.<.<.<.<.<.<.<.",
"<.<.<.<.<.<.<.<.<.<.<.<.<.<.<.$ w R E E R R R R R R R R R R R R R R R R R R R R a ^ X >.<.<.<.<.<.<.<.<.<.<.<.<.<.<.<.<.<.<.<.<.",
"<.<.<.<.<.<.<.<.<.<.<.<.<.<.<.  E R R R R R R R R R R R R R R r E R R R R R R R R W % / <.<.<.<.<.<.<.<.<.<.<.<.<.<.<.<.<.<.<.<.",
"<.<.<.<.<.<.<.<.<.<.<.<.<.<.# & E R R R R R r 4 7 e E R R R R R R R R R R R R R R W w w <.<.<.<.<.<.<.<.<.<.<.<.<.<.<.<.<.<.<.<.",
"<.<.<.<.<.<.<.<.<.<.<.<.<.^ X W R R R R R r - B A x 7 R R R R R R R R R R R a 8 0 R W # <.<.<.<.<.<.<.<.<.<.<.<.<.<.<.<.<.<.<.<.",
"<.<.<.<.<.<.<.<.<.<.<.<.<.  E R R R R R R 3 N K } <.V a R R r R h B R R R a 2 D m * ^   <.<.<.<.<.<.<.<.<.<.<.<.<.<.<.<.<.<.<.<.",
"<.<.<.<.<.<.<.<.<.<.<.<.X = E E E R R R R ; L c &.<.T 0 R r r r u r r R R q I Y <.{ e % W <.<.<.<.<.<.<.<.<.<.<.<.<.<.<.<.<.<.<.",
"<.<.<.<.<.<.<.<.<.<.<.<.  = = = $ & r R R ; K C k Z J 8 R _ @.*.>.-...W p M b [ <.| < ^   <.<.<.<.<.<.<.<.<.<.<.<.<.<.<.<.<.<.<.",
"<.<.<.<.<.<.<.<.<.<.<.<.-.  X O r E R R R 4 C <.l S G ' >.-.*.>.! u s ^ o.A P j Z H 1 r O _ <.<.<.<.<.<.<.<.<.<.<.<.<.<.<.<.<.<.",
"<.<.<.<.<.<.<.<.<.<.<.<.<.E   w # 3 E w R R - D U F ' >.*.*.*.+.d ] #.` ' Z <.n v U y 3   E <.<.<.<.<.<.<.<.<.<.<.<.<.<.<.<.<.<.",
"<.<.<.<.<.<.<.<.<.<.<.<.<.<.$   # r & 3 R R R 0 , ( >.*.*.*.*.:., f g t =.%.z U L 5 a *   <.<.<.<.<.<.<.<.<.<.<.<.<.<.<.<.<.<.<.",
"<.<.<.<.<.<.<.<.<.<.<.<.<.<.<.@ + % . w R R R R r *.*.*.*.*.*.-.<.~ Q >.-.-.$., i & 6   O.<.<.<.<.<.<.<.<.<.<.<.<.<.<.<.<.<.<.<.",
"<.<.<.<.<.<.<.<.<.<.<.<.<.<.<.<.=   @ w 3 6 w r R >.-.*.*.-.-._ ' + B ;.*.-.;.r w *   3 <.<.<.<.<.<.<.<.<.<.<.<.<.<.<.<.<.<.<.<.",
"<.<.<.<.<.<.<.<.<.<.<.<.<.<.<.<.<. .  o < 9 4 3 3 @.O.@.@.*.*.>.r @.R / -.*.@.= 6 @ + <.<.<.<.<.<.<.<.<.<.<.<.<.<.<.<.<.<.<.<.<.",
"<.<.<.<.<.<.<.<.<.<.<.<.<.<.<.<.<.<.<.^ o   O & > O.@.O.O.X.....O.O.O.O.X.O.) 3 . # <.<.<.<.<.<.<.<.<.<.<.<.<.<.<.<.<.<.<.<.<.<.",
"<.<.<.<.<.<.<.<.<.<.<.<.<.<.<.<.<.<.<.<.<.>.! $     $ w ^  .=.%.@.@.@.*.O.E .   / <.<.<.<.<.<.<.<.<.<.<.<.<.<.<.<.<.<.<.<.<.<.<.",
"<.<.<.<.<.<.<.<.<.<.<.<.<.<.<.<.<.<.<.<.<.<.<.<.<.-.. $ o X     . O .     $ / <.<.<.<.<.<.<.<.<.<.<.<.<.<.<.<.<.<.<.<.<.<.<.<.<.",
"<.<.<.<.<.<.<.<.<.<.<.<.<.<.<.<.<.<.<.<.<.<.<.<.<.% r % W <.<.<._ + <.<.<.<.<.<.<.<.<.<.<.<.<.<.<.<.<.<.<.<.<.<.<.<.<.<.<.<.<.<.",
"<.<.<.<.<.<.<.<.<.<.<.<.<.<.<.<.<.<.<.<.<.<.<.<.<.  ! @ ..-.*.*.,.+ *.<.<.<.<.<.<.<.<.<.<.<.<.<.<.<.<.<.<.<.<.<.<.<.<.<.<.<.<.<.",
"<.<.<.<.<.<.<.<.<.<.<.<.<.<.<.<.<.<.<.<.<.<.<.<.X.  ! @ *.-.*.*.-._ % <.<.<.<.<.<.<.<.<.<.<.<.<.<.<.<.<.<.<.<.<.<.<.<.<.<.<.<.<.",
"<.<.<.<.<.<.<.<.<.<.<.<.<.<.<.<.<.<.<.<.<.<.<.<.R X W 3 w ,.*.*.*.>.. <.<.<.<.<.<.<.<.<.<.<.<.<.<.<.<.<.<.<.<.<.<.<.<.<.<.<.<.<.",
"<.<.<.<.<.<.<.<.<.<.<.<.<.<.<.<.<.<.<.<.<.@ + $ # + ! a X X.-.*.*.>.% X.<.<.<.<.<.<.<.<.<.<.<.<.<.<.<.<.<.<.<.<.<.<.<.<.<.<.<.<.",
"<.<.<.<.<.<.<.<.<.<.<.<.<.<.<.<.<.<.<.<.o W W ^ X . E R w   >.-.*.>.W r <.<.<.<.<.<.<.<.<.<.<.<.<.<.<.<.<.<.<.<.<.<.<.<.<.<.<.<.",
"<.<.<.<.<.<.<.<.<.<.<.<.<.<.<.<.= @ ..@ E R X + + w % E E = $ >.*.-._ & <.<.<.<.<.<.<.<.<.<.<.<.<.<.<.<.<.<.<.<.<.<.<.<.<.<.<.<.",
"<.<.<.<.<.<.<.<.<.<.<.<.<.<.<.W O # O r E X <...  % X ! w @.+ >.*.-. .+ <.<.<.<.<.<.<.<.<.<.<.<.<.<.<.<.<.<.<.<.<.<.<.<.<.<.<.<.",
"<.<.<.<.<.<.<.<.<.<.<.<.<.<.<.3 + + + 3 O *.<.<.X 6 r . -._ @ ,.*.>.W   <.<.<.<.<.<.<.<.<.<.<.<.<.<.<.<.<.<.<.<.<.<.<.<.<.<.<.<.",
"<.<.<.<.<.<.<.<.<.<.<.<.<.<.<./ . + @ o E <.<.<.6 % 3 r o w <.-.>._ @ ^ <.<.<.<.<.<.<.<.<.<.<.<.<.<.<.<.<.<.<.<.<.<.<.<.<.<.<.<.",
"<.<.<.<.<.<.<.<.<.<.<.<.<.<.<.<.W O O ! <.<.<.<.r # E w r W ) ^ r 3 . $ <.<.<.<.<.<.<.<.<.<.<.<.<.<.<.<.<.<.<.<.<.<.<.<.<.<.<.<.",
"<.<.<.<.<.<.<.<.<.<.<.<.<.<.<.<.<.<.<.<.<.<.<.^ # / R R = 4 3 4 &   W r & <.<.<.<.<.<.<.<.<.<.<.<.<.<.<.<.<.<.<.<.<.<.<.<.<.<.<.",
"<.<.<.<.<.<.<.<.<.<.<.<.<.<.<.<.<.<.<.<.<.<.,.X / W R E . o X . O E E / # X.<.<.<.<.<.<.<.<.<.<.<.<.<.<.<.<.<.<.<.<.<.<.<.<.<.<.",
"<.<.<.<.<.<.<.<.<.<.<.<.<.<.<.<.<.<.<.<.<.<.O ! ! r R w < >.,.O.# E r ! ^ o <.<.<.<.<.<.<.<.<.<.<.<.<.<.<.<.<.<.<.<.<.<.<.<.<.<.",
"<.<.<.<.<.<.<.<.<.<.<.<.<.<.<.<.<.<.<.<.<.^ & ^ E R E # ) <.<.<.. E R E ^ * ^ <.<.<.<.<.<.<.<.<.<.<.<.<.<.<.<.<.<.<.<.<.<.<.<.<.",
"<.<.<.<.<.<.<.<.<.<.<.<.<.<.<.<.<.<.<.<.<.X / ! R R r . <.<.<.<.+ r R r W / o <.<.<.<.<.<.<.<.<.<.<.<.<.<.<.<.<.<.<.<.<.<.<.<.<.",
"<.<.<.<.<.<.<.<.<.<.<.<.<.<.<.<.<.<.<.<.W E W R R E & 6 <.<.<.<.W $ R R R ^ = ) <.<.<.<.<.<.<.<.<.<.<.<.<.<.<.<.<.<.<.<.<.<.<.<.",
"<.<.<.<.<.<.<.<.<.<.<.<.<.<.<.<.<.<.<.<.R _ W r R w . <.<.<.<.<.<.. r R R R  .w <.<.<.<.<.<.<.<.<.<.<.<.<.<.<.<.<.<.<.<.<.<.<.<.",
"<.<.<.<.<.<.<.<.<.<.<.<.<.<.<.<.<.<.<.<.>.O >.^ 6 # R <.<.<.<.<.<.w % 3 E *.* X.<.<.<.<.<.<.<.<.<.<.<.<.<.<.<.<.<.<.<.<.<.<.<.<.",
"<.<.<.<.<.<.<.<.<.<.<.<.<.<.<.<.<.<.<.<.<./ o ) / O <.<.<.<.<.<.<.<.X @.@.= = <.<.<.<.<.<.<.<.<.<.<.<.<.<.<.<.<.<.<.<.<.<.<.<.<.",
"<.<.<.<.<.<.<.<.<.<.<.<.<.<.<.<.<.<.<.<.<.<.>.6 w <.<.<.<.<.<.<.<.<.-.# # / <.<.<.<.<.<.<.<.<.<.<.<.<.<.<.<.<.<.<.<.<.<.<.<.<.<.",
"<.<.<.<.<.<.<.<.<.<.<.<.<.<.<.<.<.<.<.<.<.<.<.<.<.<.<.<.<.<.<.<.<.<.<.<.<.<.<.<.<.<.<.<.<.<.<.<.<.<.<.<.<.<.<.<.<.<.<.<.<.<.<.<.",
"<.<.<.<.<.<.<.<.<.<.<.<.<.<.<.<.<.<.<.<.<.<.<.<.<.<.<.<.<.<.<.<.<.<.<.<.<.<.<.<.<.<.<.<.<.<.<.<.<.<.<.<.<.<.<.<.<.<.<.<.<.<.<.<.",
"<.<.<.<.<.<.<.<.<.<.<.<.<.<.<.<.<.<.<.<.<.<.<.<.<.<.<.<.<.<.<.<.<.<.<.<.<.<.<.<.<.<.<.<.<.<.<.<.<.<.<.<.<.<.<.<.<.<.<.<.<.<.<.<."
};
