/* XPM */
static char *result[] = {
/* columns rows colors chars-per-pixel */
"64 64 12 1 ",
"  c #3E734E",
". c #7AB055",
"X c #4D9262",
"o c #529168",
"O c #569569",
"+ c #CFDCD3",
"@ c #D0DED4",
"# c #D2E2D7",
"$ c #DBE5DE",
"% c #CBDBFC",
"& c #E7EEE9",
"* c white",
/* pixels */
"****************************************************************",
"****************************************************************",
"****************************************************************",
"****************************************************************",
"****************************************************************",
"****************************************************************",
"****************************************************************",
"****************************************************************",
"****************************************************************",
"****************************************************************",
"****************************************************************",
"****************************************************************",
"****************************************************************",
"****************************************************************",
"****************************************************************",
"****************************************************************",
"************************************%%  ************************",
"*******************  *************%%%%XX ***********************",
"*******************  *************%%%%XX ***********************",
"*******************  %%***%%%%%%%%%%XX   ++*********************",
"*******************  %%***%%%%%%%%%%XX   ++*********************",
"***************@@  XX..%%%..XXXXXXXXXX  $  *********************",
"***************@@  XX..%%%..XXXXXXXXXX  $  *********************",
"***************  &&**XXXXX****XX        *    *******************",
"***************  &&**XXXXX****XX        *    *******************",
"***************  %%**XXX****************%    ++*****************",
"***************  %%**XXX****************%    ++*****************",
"***************  XX%%***************%%%%X  $$  *****************",
"***************  XX%%***************%%%%X  $$  *****************",
"***********@@  XXXX..%%*******%%%%%%XXXX   **    ***************",
"***********@@  XXXX..%%*******%%%%%%XXXX   **    ***************",
"***********  &&**XXXXXX*%%%%%%..XXXXXX     ****  ***************",
"***********  &&**XXXXXX*%%%%%%..XXXXXX     ****  ***************",
"***********  %%****XXXX*XXXXXXXX        XXX**%%  ***************",
"***********  %%****XXXX*XXXXXXXX        XXX**%%  ***************",
"***********  ..%%*******XXXXXXXXXXXXXXXX*****%%    *************",
"***********  ..%%*******XXXXXXXXXXXXXXXX*****%%    *************",
"***********  XX..******%XXXX**XX****XX*******XX    *************",
"***********  XX..******%XXXX**XX****XX*******XX    *************",
"*********@@  XX..%%**************************XX**  *************",
"*********@@  XX..%%**************************XX**  *************",
"*********  $$  XX..%%%%%%%%%********%%%%%%%**  **    ***********",
"*********  $$  XX..%%%%%%%%%********%%%%%%%**  **    ***********",
"*********  %%**  **XXXXXXX..%%******..XXXXX****%%    ***********",
"*********  %%**  **XXXXXXX..%%******..XXXXX****%%    ***********",
"*********  XX%%****       ooXX****XX     ****%%XX    ***********",
"*********  XX%%****       ooXX****XX     ****%%XX    ***********",
"*********  XXXX%%%%##XXXOO  ********  ***%%%%XX    *************",
"***********  XXXXXXXX##***%%%%%%%%%%**%%%XXXX      *************",
"***********  XXXXXXXX##***%%%%%%%%%%**%%%XXXX      *************",
"*************  XX    XXXXXXXXXXXXXXXXXXX         ***************",
"*************  XX    XXXXXXXXXXXXXXXXXXX         ***************",
"***************                                *****************",
"***************                                *****************",
"***********************                 ************************",
"***********************                 ************************",
"****************************************************************",
"****************************************************************",
"****************************************************************",
"****************************************************************",
"****************************************************************",
"****************************************************************",
"****************************************************************",
"****************************************************************"
};
