/* XPM */
static char *result[] = {
/* columns rows colors chars-per-pixel */
"64 64 8 1 ",
"  c #181425",
". c #3F2832",
"X c #743F39",
"o c #B86F50",
"O c #FEAE34",
"+ c #FEE761",
"@ c #C0CBDC",
"# c white",
/* pixels */
"################################################################",
"################################################################",
"################################################################",
"################################################################",
"################################################################",
"################################################################",
"################################################################",
"################################################################",
"################################################################",
"################################################################",
"################################################################",
"################################################################",
"################################################################",
"################################################################",
"################################################################",
"################################################################",
"################################################################",
"################################################################",
"################################################################",
"################################################################",
"################oooooooooooooooooooooooooooooooo################",
"################oooooooooooooooooooooooooooooooo################",
"################..XXXXXXXXXXXXXXXXXXXXXXXXXXXX..################",
"################..XXXXXXXXXXXXXXXXXXXXXXXXXXXX..################",
"##############++..XXXXXXXXXXXXXXXXXXXXXXXXXXXX..++##############",
"##############++..XXXXXXXXXXXXXXXXXXXXXXXXXXXX..++##############",
"################..XXXXXXXXXXXXXXXXXXXXXXXXXXXX..################",
"################..XXXXXXXXXXXXXXXXXXXXXXXXXXXX..################",
"################..XXXXXXXXXXXXXXXXXXXXXXXXXXXX..################",
"##############++....XXXXXXXXXXXXXXXXXXXXXXXX....++##############",
"##############++....XXXXXXXXXXXXXXXXXXXXXXXX....++##############",
"##############OO................................OO##############",
"##############OO................................OO##############",
"##############OOOOOOOOOOOOOOOO    OOOOOOOOOOOOOOOO##############",
"##############OOOOOOOOOOOOOOOO    OOOOOOOOOOOOOOOO##############",
"##############                ####                ##############",
"##############                ####                ##############",
"##############                ####                ##############",
"##############OO............  @@@@  ............OO##############",
"##############OO............  @@@@  ............OO##############",
"##############OO..XXXXXXXXXX..    ..XXXXXXXXXX..OO##############",
"##############OO..XXXXXXXXXX..    ..XXXXXXXXXX..OO##############",
"##############++..XXXXXXXXXXXX....XXXXXXXXXXXX..++##############",
"##############++..XXXXXXXXXXXX....XXXXXXXXXXXX..++##############",
"##############++..XXXXXXXXXXXXXXXXXXXXXXXXXXXX..++##############",
"##############++..XXXXXXXXXXXXXXXXXXXXXXXXXXXX..++##############",
"##############  ++XXXXXXXXXXXXXXXXXXXXXXXXXXXX++  ##############",
"##############  ++XXXXXXXXXXXXXXXXXXXXXXXXXXXX++  ##############",
"##############  ++XXXXXXXXXXXXXXXXXXXXXXXXXXXX++  ##############",
"##############OO  ++++##################++##++  OO##############",
"##############OO  ++++##################++##++  OO##############",
"################################################################",
"################################################################",
"################################################################",
"################################################################",
"################################################################",
"################################################################",
"################################################################",
"################################################################",
"################################################################",
"################################################################",
"################################################################",
"################################################################",
"################################################################"
};
